<svg xmlns="http://www.w3.org/2000/svg" width="20.07" height="19.999" viewBox="0 0 17 16.94">
  <defs>
    <style>
      .cls-1 {
        fill: #333;
        fill-rule: evenodd;
      }
    </style>
  </defs>
  <path id="Forma_4_copia" data-name="Forma 4 copia" class="cls-1" d="M3328.34,1397.62l-2.11-2.11a1.535,1.535,0,0,0-2.11,0l-0.35.35,4.22,4.22,0.35-.35A1.5,1.5,0,0,0,3328.34,1397.62Zm-5.29-1.07a1.115,1.115,0,0,1-1.48-.08l-4.17-4.17a1.116,1.116,0,0,1-.08-1.48l-4.21-4.21a5.368,5.368,0,0,0,.26,7.29l6.6,6.6a5.339,5.339,0,0,0,7.29.25Zm-4.69-8.91-2.11-2.11a1.516,1.516,0,0,0-2.11,0l-0.35.35,4.21,4.22,0.36-.36A1.485,1.485,0,0,0,3318.36,1387.64Z" transform="translate(-3311.81 -1385.12)"/>
</svg>
