<?xml version="1.0" encoding="utf-8"?>
<!-- Generator: Adobe Illustrator 24.0.3, SVG Export Plug-In . SVG Version: 6.00 Build 0)  -->
<svg version="1.1" id="Capa_1" xmlns="http://www.w3.org/2000/svg" xmlns:xlink="http://www.w3.org/1999/xlink" x="0px" y="0px"
	 viewBox="0 0 160.6 51.5" style="enable-background:new 0 0 160.6 51.5;" xml:space="preserve">
<style type="text/css">
	.st0{fill:#FFFFFF;}
</style>
<title>Recurso 7</title>
<g id="Capa_2_1_">
	<g id="Capa_1-2">
		<path class="st0" d="M27.8,31.1l-1,8.4H0v-1.2C2,38,2.5,37.1,2.5,35V6.3c0-2.1-0.5-3-2.5-3.2V1.9h10.8v1.2c-2,0.2-2.5,1.1-2.5,3.2
			v31.1h11.3c5,0,6.4-3.5,7.3-6.3C26.9,31.1,27.8,31.1,27.8,31.1z"/>
		<path class="st0" d="M37.5,7.3C35.2,8.2,33,9,30.7,9.7c-0.7,0.2-1.1,0.2-1.3-0.3s-0.1-0.9,0.5-1.3c1.8-1.5,3.7-3,5.7-4.3
			C37,2.9,38,3.3,38.7,4.4S39,6.6,37.5,7.3z M40.6,38.3v1.2H30v-1.2c2-0.2,2.5-1.1,2.5-3.2V19.8c0-2.1-0.5-3-2.5-3.2v-1.2l7.3-1.9
			h0.9V35C38.1,37.1,38.6,38.1,40.6,38.3L40.6,38.3z"/>
		<path class="st0" d="M72,38.2v1.2H61.3v-1.2c2-0.2,2.5-1.1,2.5-3.2V23c0-4.3-1.9-7.5-6.1-7.5c-3.7,0-6.3,3-6.3,7V35
			c0,2.1,0.5,3,2.6,3.2v1.2H43.3v-1.1c2-0.2,2.6-1.1,2.6-3.2V19.8c0-2.1-0.5-3-2.6-3.2v-1.2l7.1-1.9h0.9v3.9c2-2.6,5-4,8.2-3.9
			c6.6,0,9.9,4.4,9.9,10.1V35C69.4,37.1,70,38.1,72,38.2z"/>
		<path class="st0" d="M103.4,38.2v1.2H92.7v-1.2c1.8-0.2,1.8-1.3,0.3-3.2l-6.8-8.9l-3.5,3.2V35c0,2.1,0.5,3,2.6,3.2v1.2H74.6v-1.1
			c2-0.2,2.5-1.1,2.5-3.2V6.3c0-2.1-0.5-3-2.5-3.2V1.9L81.9,0h0.8v27.1l10-9.1c1.7-1.5,1.6-2.7-0.4-2.8V14h7.9v1.2
			c-2.2,0.3-3.7,1.5-5.6,3.2L90,22.7L99.3,35C100.7,36.9,101.8,37.9,103.4,38.2z"/>
		<path class="st0" d="M130,14v1.2c-1.6,0.2-2,0.9-2.7,2.5l-9.8,23c-3.7,8-5.4,9.9-8.5,10.5c-2,0.4-4.1,0-5.9-1.1
			c-1.3-1-1.5-2.9-0.5-4.1c0-0.1,0.1-0.1,0.1-0.1c0.8-0.9,2.2-1,3.1-0.2c0.3,0.3,0.5,0.6,0.6,0.9c0.3,1.1,0.8,2.7,2.7,2.5
			c1.6-0.2,3.6-1.3,6.5-8.4l0.2-0.5L106,18.6c-0.9-2.1-1.4-3.2-3.4-3.4V14h10.5v1.2c-1.7,0.1-1.8,1.5-1.1,3.1l6.6,15.5l6.5-15.5
			c0.6-1.5,0.5-2.9-1.2-3.1V14H130z"/>
		<path class="st0" d="M160.6,38.2v1.2h-10.7v-1.2c2-0.2,2.5-1.1,2.5-3.2V23c0-4.3-1.9-7.5-6.1-7.5c-3.7,0-6.3,3-6.3,7V35
			c0,2.1,0.5,3,2.6,3.2v1.2h-10.7v-1.1c2-0.2,2.6-1.1,2.6-3.2V19.8c0-2.1-0.5-3-2.6-3.2v-1.2l7.1-1.9h0.9v3.9c2-2.6,5-4,8.2-3.9
			c6.6,0,9.9,4.4,9.9,10.1V35C158,37.1,158.6,38.1,160.6,38.2z"/>
		<path class="st0" d="M8.8,49.2H8.5c-0.5,0-1-0.2-1.3-0.7c-0.3-0.4-0.6-0.9-0.8-1.3c-0.2-0.2-0.3-0.3-0.6-0.3H5.5v1.2
			c0,0.7,0.1,0.7,0.7,0.8v0.2H4V49c0.7-0.1,0.7-0.1,0.7-0.8V45c0-0.7-0.1-0.7-0.7-0.8V44h2.1c0.5,0,0.9,0.1,1.3,0.3
			c0.4,0.2,0.6,0.6,0.6,1c0,0.6-0.4,1.2-1,1.4c0.1,0.2,0.5,0.8,0.7,1.1s0.4,0.6,0.6,0.8C8.5,48.8,8.7,49,8.9,49L8.8,49.2z M5.8,46.7
			c0.3,0,0.6,0,0.9-0.2s0.5-0.6,0.4-1c0.1-0.6-0.4-1.1-1-1.1H6c-0.1,0-0.3,0-0.4,0.1s-0.1,0.1-0.1,0.3v2L5.8,46.7L5.8,46.7z"/>
		<path class="st0" d="M18.5,47.9c0,0.2-0.3,1-0.3,1.3h-3.9V49c0.7-0.1,0.8-0.1,0.8-0.8V45c0-0.7-0.1-0.7-0.7-0.8V44H18
			c0,0.2,0,0.8,0.1,1.2h-0.2c-0.1-0.2-0.1-0.4-0.3-0.6c-0.1-0.2-0.3-0.3-0.8-0.3h-0.7c-0.3,0-0.3,0-0.3,0.3v1.8h0.9
			c0.6,0,0.6-0.1,0.7-0.7h0.3v1.7h-0.2c-0.1-0.6-0.2-0.7-0.7-0.7h-0.9v1.5c0,0.6,0.1,0.6,0.6,0.6h0.7c0.5,0,0.6-0.1,0.7-0.3
			c0.2-0.2,0.3-0.5,0.4-0.8L18.5,47.9z"/>
		<path class="st0" d="M27,49.2V49c0.5-0.1,0.6-0.1,0.5-0.5s-0.3-0.7-0.4-1.2h-1.7c-0.1,0.3-0.2,0.7-0.4,1c-0.2,0.5,0,0.6,0.6,0.7
			v0.2h-1.9V49c0.5-0.1,0.6-0.1,0.9-0.8l1.6-4.2h0.3c0.5,1.4,1.1,2.9,1.6,4.2c0.3,0.7,0.3,0.8,0.9,0.8v0.2H27z M26.2,45
			c-0.2,0.7-0.5,1.4-0.8,2h1.5L26.2,45z"/>
		<path class="st0" d="M38.6,47.8c0,0.3-0.3,1.1-0.4,1.3h-3.8V49c0.7-0.1,0.8-0.1,0.8-0.8V45c0-0.7-0.1-0.7-0.7-0.8V44h2.2v0.2
			C36.1,44.3,36,44.3,36,45v3.2c0,0.5,0.1,0.6,0.5,0.6h0.6c0.4,0,0.5,0,0.7-0.2s0.4-0.5,0.5-0.8H38.6z"/>
		<path class="st0" d="M54.2,45.2c-0.1-0.5-0.4-1.1-1.1-1.1c-0.4,0-0.8,0.3-0.8,0.7v0.1c0,0.5,0.3,0.8,1,1.2
			c0.9,0.5,1.4,0.9,1.4,1.6c0,0.9-0.8,1.6-1.7,1.5h-0.1c-0.4,0-0.9-0.1-1.2-0.3c-0.1-0.4-0.2-0.8-0.2-1.2l0.3-0.1
			c0.1,0.7,0.7,1.2,1.3,1.2c0.5,0,0.9-0.3,0.9-0.8v-0.1c0-0.6-0.3-0.8-1-1.2s-1.3-0.8-1.3-1.6s0.7-1.5,1.6-1.4h0.1
			c0.4,0,0.7,0.1,1.1,0.2c0,0.3,0.1,0.6,0.1,1.2L54.2,45.2z"/>
		<path class="st0" d="M64.8,45.3c-0.1-0.2-0.1-0.5-0.3-0.7c-0.1-0.2-0.2-0.3-0.7-0.3H63v3.9c0,0.6,0.1,0.7,0.8,0.8v0.2h-2.4V49
			c0.7,0,0.8-0.1,0.8-0.8v-3.9h-0.7c-0.5,0-0.6,0.1-0.7,0.3c-0.1,0.2-0.2,0.4-0.3,0.7h-0.2c0-0.5,0.1-1,0.1-1.5h0.2
			C60.7,44,60.8,44,61,44h3.2c0.2,0,0.3,0,0.4-0.2H65c0,0.4,0,1,0.1,1.4L64.8,45.3z"/>
		<path class="st0" d="M73.1,49.2V49c0.5-0.1,0.6-0.1,0.5-0.5s-0.3-0.7-0.4-1.2h-1.7c-0.1,0.3-0.2,0.7-0.3,1c-0.2,0.5,0,0.6,0.6,0.7
			v0.2h-1.9V49c0.5-0.1,0.6-0.1,0.9-0.8l1.7-4.2h0.3c0.5,1.4,1.1,2.9,1.6,4.2c0.3,0.7,0.3,0.8,0.9,0.8v0.2H73.1z M72.3,45
			c-0.2,0.7-0.5,1.4-0.8,2H73L72.3,45z"/>
		<path class="st0" d="M84.3,45.3c-0.1-0.2-0.1-0.5-0.3-0.7c-0.1-0.2-0.2-0.3-0.7-0.3h-0.8v3.9c0,0.6,0.1,0.7,0.8,0.8v0.2H81V49
			c0.7,0,0.8-0.1,0.8-0.8v-3.9h-0.7c-0.4,0-0.6,0.1-0.7,0.3s-0.2,0.4-0.3,0.7h-0.2c0-0.5,0.1-1,0.1-1.5h0.2c0.1,0.2,0.2,0.2,0.4,0.2
			h3.2c0.2,0,0.3,0,0.4-0.2h0.2c0,0.4,0,1,0.1,1.4L84.3,45.3z"/>
		<path class="st0" d="M94.6,47.9c0,0.2-0.3,1-0.3,1.3h-3.9V49c0.7-0.1,0.8-0.1,0.8-0.8V45c0-0.7-0.1-0.7-0.7-0.8V44H94
			c0,0.2,0,0.8,0.1,1.2h-0.3c-0.1-0.2-0.1-0.4-0.2-0.6c-0.1-0.2-0.3-0.3-0.8-0.3h-0.7c-0.3,0-0.3,0-0.3,0.3v1.8h0.9
			c0.6,0,0.6-0.1,0.7-0.7h0.3v1.7h-0.3c-0.1-0.6-0.2-0.7-0.7-0.7h-0.9v1.5c0,0.6,0.2,0.6,0.6,0.6h0.7c0.5,0,0.6-0.1,0.7-0.3
			c0.2-0.2,0.3-0.5,0.4-0.8L94.6,47.9z"/>
	</g>
</g>
</svg>
