<svg xmlns="http://www.w3.org/2000/svg" viewBox="0 0 1353.29 986.01"><defs><style>.cls-1{opacity:0.5;}.cls-2{fill:none;stroke:#b2b2b2;}</style></defs><title>bg-linkyn</title><g id="Capa_2" data-name="Capa 2"><g id="Capa_1-2" data-name="Capa 1"><g class="cls-1"><path class="cls-2" d="M906.51,567.35v69.78a2,2,0,0,1-2,2l-135.12,0a5.52,5.52,0,0,0-3.38,1.39l-39.23,39a5.48,5.48,0,0,1-3.37,1.4H648.06a2,2,0,0,1-2-2v-33.5"/><path class="cls-2" d="M800.37,434.15l45.54-45.24a5.41,5.41,0,0,0,1.39-3.35l-.06-10.38a5.45,5.45,0,0,0-1.4-3.35l-43.38-43.07a1.94,1.94,0,0,1,0-2.74l0,0,82.83-82.25a5.48,5.48,0,0,1,3.37-1.4l44.94.1a5.59,5.59,0,0,0,3.37-1.37l141-139.84"/><path class="cls-2" d="M632.49,1.9V267.37a4,4,0,0,0,4,4h55a2,2,0,0,1,2,2v147.5a5.43,5.43,0,0,1-1.4,3.35l-47.9,47.4a5.46,5.46,0,0,0-1.4,3.34,6.45,6.45,0,0,0,1.4,4.53L698,532.7a4.78,4.78,0,0,0,2.19,1.39c.43,0,.79.88.79,2v70.17a2,2,0,0,1-2,2l-85.81,0a5.52,5.52,0,0,0-3.38,1.39l-1.55,1.54a5.51,5.51,0,0,1-3.38,1.4h-9.29"/><path class="cls-2" d="M133.49,206.4V597.46a4,4,0,0,0,4,4l128.8,1.08"/><path class="cls-2" d="M1019.5,452.58l49.8-49.44a5.48,5.48,0,0,1,3.37-1.4h92.41a5.53,5.53,0,0,1,3.38,1.4l27.18,27"/><path class="cls-2" d="M1019.5,452.58l49.8-49.44a5.48,5.48,0,0,1,3.37-1.4h92.41a5.53,5.53,0,0,1,3.38,1.4l27.18,27"/><path class="cls-2" d="M880.65,292.48l70.82,0a5.5,5.5,0,0,0,3.37-1.4l91.61-91a5.53,5.53,0,0,1,3.37-1.39h77.07l-71.29-72.13a5.43,5.43,0,0,1-1.4-3.35V95.45"/><path class="cls-2" d="M387.27,26.14l11.16,11.08a5.47,5.47,0,0,1,1.4,3.35v33l-117.64,116-85.4,84.8a5.43,5.43,0,0,0-1.4,3.35V378.43a2,2,0,0,0,2,2h50.4a2,2,0,0,1,2,2l.07,26.92a2,2,0,0,0,2,2l335.73.13a2,2,0,0,1,2,2v36.79l-43,43.78a5.48,5.48,0,0,1-3.37,1.4H510.69"/><path class="cls-2" d="M690.29,628.22V646a5.48,5.48,0,0,1-1.4,3.35L507.77,829.18a5.58,5.58,0,0,1-3.38,1.39H395.29a2,2,0,0,0-2,2V855.9a2,2,0,0,1-2,2H307.8a2,2,0,0,0-2,2v45.8a2,2,0,0,0,2,2h29.89a2,2,0,0,1,2,2V960.6a5.43,5.43,0,0,0,1.4,3.35l10.32,10.25a5.55,5.55,0,0,0,3.37,1.39H466.52c1.09,0,1.34.62.57,1.39m141.22-242.4H756.39"/><path class="cls-2" d="M566,324.45l-31.7,31.48a5.53,5.53,0,0,1-3.37,1.39H468.58a5.52,5.52,0,0,0-3.38,1.39l-2.68,3.66-264.59,0a5.5,5.5,0,0,1-3.37-1.4l-47.3-47a5.53,5.53,0,0,0-3.37-1.39H86.42L85.3,278a5.43,5.43,0,0,0-1.4-3.35L17.36,208.73"/><path class="cls-2" d="M830.8,300.31h7.83a5.48,5.48,0,0,1,3.37,1.4l45.8,45.6a5.37,5.37,0,0,1,1.4,3.35V364.6c0,1.08.46,2,1,2s1,.9,1,2v10.77l-.15,110.84a2,2,0,0,1-2,2H753.81a5.5,5.5,0,0,1-3.37-1.4l-12.2-12.12a5.58,5.58,0,0,0-3.38-1.39H688.68a2,2,0,0,0-2,2l-.17,26.74a5.43,5.43,0,0,1-1.4,3.35L676.29,518a5.53,5.53,0,0,1-3.37,1.39l-26.65-.06a5.52,5.52,0,0,0-3.38,1.39l-48.1,47.78a5.58,5.58,0,0,1-3.38,1.39H575l-79.45,0a5.48,5.48,0,0,0-3.36,1.39l-146,146.35a5.48,5.48,0,0,1-3.35,1.4H156.55"/><path class="cls-2" d="M270.92,178,415.09,322.08a5.55,5.55,0,0,0,3.37,1.39H565.22a5.52,5.52,0,0,1,3.38,1.39l31.93,31.71a5.45,5.45,0,0,1,1.4,3.35V552.68a5.43,5.43,0,0,1-1.4,3.35l-7.6,7.54a5.51,5.51,0,0,1-3.36,1.4H569l-20.67,21-2.78,2.78L414.86,718.58a5.43,5.43,0,0,0-1.4,3.35l.16,177.85"/><path class="cls-2" d="M444.31,459.2h94.88a5.58,5.58,0,0,1,3.38,1.39l15,14.87a5.55,5.55,0,0,0,3.37,1.39h73a5.45,5.45,0,0,1,3.35,1.39l58.57,58.53a5.45,5.45,0,0,0,3.35,1.4H802.54a2,2,0,0,0,2-2V521.5a2,2,0,0,0-2-2l-6.7,0H755.59a2,2,0,0,1-2-2v-57a5.43,5.43,0,0,0-1.4-3.35l-14.58-14.48a5.43,5.43,0,0,1-1.4-3.35v-17.3a5.42,5.42,0,0,0-1.4-3.34L722.49,406.5a5.53,5.53,0,0,0-3.37-1.39h-17.4a5.52,5.52,0,0,1-3.38-1.39l-41.8-41.5a5.48,5.48,0,0,0-3.37-1.4H611.83"/><path class="cls-2" d="M980.69,273h59.84a2,2,0,0,1,2,2v28.74a5.48,5.48,0,0,0,1.4,3.35l51,50.6a5.43,5.43,0,0,1,1.4,3.35V462.45l105.2,104.27"/><path class="cls-2" d="M764,384.31l12.54-12.44a1.94,1.94,0,0,0,0-2.76L745.14,338a2,2,0,0,1,0-2.76l18.53-18.4a5.53,5.53,0,0,1,3.37-1.39l160.41-.2,423.37,1.2a2,2,0,0,1,2,2v71.5"/><path class="cls-2" d="M564.1,564.61H545.56a5.5,5.5,0,0,1-3.37-1.4L467.25,488.8a5.48,5.48,0,0,0-3.37-1.4H425.31a5.54,5.54,0,0,1-3.37-1.38l-47-46.68-36.58,0-57,71.59a5.43,5.43,0,0,0-1.4,3.35v23.9"/><path class="cls-2" d="M1007.55,437.55l-46.92,46.6a5.58,5.58,0,0,1-3.38,1.39H862.61a5.53,5.53,0,0,1-3.38-1.4l-30.6-30.33a5.51,5.51,0,0,0-3.36-1.4l-34.94,0a5.5,5.5,0,0,0-3.37,1.4l-29.57,29.36A5.53,5.53,0,0,1,754,484.6l-14.55-14.35a5.62,5.62,0,0,0-3.42-1.4l-157-.25a5.62,5.62,0,0,0-3.43,1.4L547.8,497.61a5.51,5.51,0,0,1-3.38,1.4H101.67l-88.65.2L.58,511.56"/><path class="cls-2" d="M418.39,722.32,478,663.2a5.53,5.53,0,0,1,3.37-1.39h23.93a5.55,5.55,0,0,0,3.37-1.39l46.53-46.21a5.51,5.51,0,0,1,3.38-1.4h187.2a2,2,0,0,0,2-2V498.59a5.47,5.47,0,0,0-1.4-3.35l-38.64-38.37a5.43,5.43,0,0,1-1.4-3.35V402a5.48,5.48,0,0,0-1.4-3.35L594.4,289a5.51,5.51,0,0,0-3.38-1.4l-180.49.2"/><path class="cls-2" d="M609.62,627.29H572.53a5.5,5.5,0,0,0-3.37,1.4l-69,68.54a1.94,1.94,0,0,0,0,2.76l28.09,27.78a5.55,5.55,0,0,0,3.37,1.39H594"/><path class="cls-2" d="M646.31,640.28v-4.74a2,2,0,0,0-2-2H631.12a5.47,5.47,0,0,1-3.37-1.39l-43.36-42.88A5.43,5.43,0,0,1,583,586V395.56a5.45,5.45,0,0,1,1.4-3.36l20.89-20.74a5.43,5.43,0,0,0,1.4-3.35v-95.4a5.45,5.45,0,0,0-1.4-3.35L417.89,83.28l-.6-40.88a5.39,5.39,0,0,0-1.4-3.35l-11.6-11.54"/><path class="cls-2" d="M401.25,823.58h99.28a5.53,5.53,0,0,0,3.38-1.4L678.24,649.43a5.51,5.51,0,0,1,3.38-1.4h46.75a5.44,5.44,0,0,0,3.35-1.38l51.47-51.46a5.43,5.43,0,0,0,1.38-3.35v-202a5.47,5.47,0,0,0-1.4-3.35l-51.84-51.3a5.51,5.51,0,0,0-3.38-1.4H710a2,2,0,0,1-2-1.95V287.4a2,2,0,0,0-2-2H617.43a2,2,0,0,1-2-2v-19.2a5.48,5.48,0,0,0-1.4-3.34L435.36,83.5"/><path class="cls-2" d="M1128.14,202.41H1052a5.49,5.49,0,0,0-3.37,1.39l-92.28,91.46a5.53,5.53,0,0,1-3.37,1.39l-131.87-.08a5.62,5.62,0,0,0-3.37,1.37l-51.9,51.19a1.94,1.94,0,0,0,0,2.76L787.05,373a5.43,5.43,0,0,1,1.4,3.35V392"/><path class="cls-2" d="M798,516.22h54.25a5.5,5.5,0,0,1,3.37,1.4l49,48.7A5.54,5.54,0,0,0,908,567.7h45.16a5.49,5.49,0,0,0,3.37-1.39l83.32-82.73a5.48,5.48,0,0,1,3.37-1.4h42.22a5.5,5.5,0,0,1,3.37,1.4l100.8,100.1"/><path class="cls-2" d="M798,512.89h55.63a5.5,5.5,0,0,1,3.37,1.4l49.14,48.8a5.54,5.54,0,0,0,3.37,1.38l41.9,0a5.49,5.49,0,0,0,3.37-1.39l62.08-61.68a5.43,5.43,0,0,0,1.4-3.35l-.1-268.18a5.43,5.43,0,0,0-1.4-3.35L917,127.2a5.53,5.53,0,0,0-3.37-1.39H548.11a5.5,5.5,0,0,0-3.37,1.4l-159,157.67a5.58,5.58,0,0,1-3.38,1.39H252.79a5.49,5.49,0,0,0-3.37,1.39l-36.71,36.45a5.43,5.43,0,0,0-1.4,3.35v185.1"/><path class="cls-2" d="M535.59,792.31l17.53,17.42a5.55,5.55,0,0,0,3.37,1.39h42a5.48,5.48,0,0,0,3.37-1.4l26-25.83,123.2-.31"/><path class="cls-2" d="M432.83,985.66c.77-.77.52-1.4-.57-1.4H233.78a2,2,0,0,1-2-2V822.17a2,2,0,0,1,2-2H498.16a5.53,5.53,0,0,0,3.38-1.4l23.75-23.58a1.94,1.94,0,0,0,0-2.76l-80.84-80.1c-.77-.76-.51-1.4.57-1.4H582.55a5.57,5.57,0,0,0,3.38-1.38l53.63-53.26a5.48,5.48,0,0,1,3.37-1.4l88.57-.2a5.57,5.57,0,0,0,3.38-1.38l55.6-55.22a5.43,5.43,0,0,0,1.4-3.35V488.51a2,2,0,0,1,2-2h29a5.5,5.5,0,0,0,3.37-1.4l43.32-43a5.48,5.48,0,0,1,3.37-1.4H879a5.57,5.57,0,0,0,3.38-1.38l53.12-52.76a5.53,5.53,0,0,1,3.37-1.39h13.6a5.5,5.5,0,0,1,3.37,1.4l62.41,62a5.5,5.5,0,0,0,3.37,1.4h74.06a5.54,5.54,0,0,1,3.37,1.38l94,93.5"/><path class="cls-2" d="M773.05,508V474.42a5.43,5.43,0,0,0-1.4-3.35L740.2,439.85a5.48,5.48,0,0,0-3.37-1.4H700a5.5,5.5,0,0,0-3.37,1.4l-74.35,73.83a5.53,5.53,0,0,1-3.37,1.39H566.39a2,2,0,0,1-2-2h0v-71.5a2,2,0,0,0-2-2H134.79a5.5,5.5,0,0,0-3.37,1.4l-37.9,37.62a5.48,5.48,0,0,1-3.37,1.4h-57a5.52,5.52,0,0,0-3.38,1.38l-13.2,13.1A5.48,5.48,0,0,1,13.2,496H0"/><path class="cls-2" d="M345.39,435.58H489.88l76.54.13a2,2,0,0,1,2,2v71.7a2,2,0,0,0,2,2h46.36a5.5,5.5,0,0,0,3.37-1.4l74.35-74a5.48,5.48,0,0,1,3.37-1.4H890.14a5.52,5.52,0,0,0,3.37-1.38l43.58-43.28a5.53,5.53,0,0,1,3.37-1.39h10.6a5.5,5.5,0,0,1,3.37,1.4l62.65,62.2a5.5,5.5,0,0,0,3.37,1.4h73.87a5.53,5.53,0,0,1,3.38,1.4l94.12,93.47,9.27.57a4.92,4.92,0,0,0,2.93-1.39l104.08-89.36a2,2,0,0,1,2.78,0l6.3,6.25"/><path class="cls-2" d="M725.41,642.77a6.59,6.59,0,0,0,4-1.67l47.94-47.6a6.51,6.51,0,0,0,1.67-4V392.42a6.53,6.53,0,0,0-1.67-4l-47.94-47.6a6.58,6.58,0,0,0-4-1.66H627.57a6.6,6.6,0,0,0-4.05,1.66l-47.93,47.6a6.49,6.49,0,0,0-1.68,4V589.49a6.46,6.46,0,0,0,1.68,4l47.93,47.6a6.61,6.61,0,0,0,4.05,1.67Z"/><path class="cls-2" d="M773.74,605.75v33.3a5.45,5.45,0,0,1-1.4,3.35L685,729.16c-.77.76-.51,1.39.57,1.39h70.82"/><path class="cls-2" d="M601.53,351.9V333a5.43,5.43,0,0,0-1.4-3.35L569.23,299a5.48,5.48,0,0,0-3.37-1.4H400.11"/><path class="cls-2" d="M1048.92,451.18V197.67a5.48,5.48,0,0,0-1.4-3.34L882.89,30.84a5.53,5.53,0,0,0-3.37-1.39H477.06a5.53,5.53,0,0,0-3.38,1.4L436,68.28"/><path class="cls-2" d="M442.49,28.81,429.91,41.28a5.65,5.65,0,0,0-1.42,3.35l-.36,21.45a5.33,5.33,0,0,0,1.36,3.35L618.85,257.48a5.43,5.43,0,0,1,1.4,3.35v18.41a2,2,0,0,0,2,2h87.86a2,2,0,0,1,2,2v34.67a2,2,0,0,0,2,2h23.3a5.5,5.5,0,0,1,3.37,1.4L786.86,367a5.47,5.47,0,0,1,1.4,3.35V509l.07,84.4a5.5,5.5,0,0,1-1.38,3.35L733.32,650a5.53,5.53,0,0,1-3.37,1.39H683.39a5.55,5.55,0,0,0-3.37,1.39l-174,172.75a5.58,5.58,0,0,1-3.38,1.39H238a2,2,0,0,0-2,2v93.24a2,2,0,0,1-2,2H9.47"/><path class="cls-2" d="M540.56,691.55l63.3-62.86a5.48,5.48,0,0,1,3.37-1.4H731.9a5.47,5.47,0,0,0,3.37-1.37l28.23-27.83a5.35,5.35,0,0,0,1.4-3.33v-38a2,2,0,0,1,2-2h52.62a2,2,0,0,0,2-2V500.76a5.48,5.48,0,0,1,1.4-3.35L852.43,468a5.43,5.43,0,0,0,1.4-3.35v-76a2,2,0,0,1,2-2h37.9a4,4,0,0,0,4-4v-29.3a5.43,5.43,0,0,1,1.4-3.35l35.35-35"/><path class="cls-2" d="M1018.59,453.28,973,498.58a5.52,5.52,0,0,1-3.37,1.38H744.15a5.47,5.47,0,0,1-3.37-1.39l-81.65-81.08a5.53,5.53,0,0,0-3.37-1.39H510a5.5,5.5,0,0,0-3.37,1.4l-17.14,17"/><path class="cls-2" d="M414,718.78h-46.9a2,2,0,0,0-2,2v26.65a2,2,0,0,1-2,2H273.84"/><path class="cls-2" d="M406.83,308.18l9.65,9.59a5.55,5.55,0,0,0,3.37,1.39l146.76-.2a5.68,5.68,0,0,1,3.38,1.37l116,114a1.93,1.93,0,0,1,0,2.75l-37.2,37.05a2,2,0,0,0,0,2.77h0l49.62,49.28a5.53,5.53,0,0,0,3.38,1.4H840a5.49,5.49,0,0,1,3.37,1.39l37.26,37a5.59,5.59,0,0,0,3.38,1.4h21.7"/><path class="cls-2" d="M9.47,920.45H226.24a2,2,0,0,0,2-2V818.66a2,2,0,0,1,2-2H496.43a5.49,5.49,0,0,0,3.37-1.39l20.18-20a1.94,1.94,0,0,0,0-2.76l-78.7-78.2a5.43,5.43,0,0,1-1.4-3.35v-1.57a2,2,0,0,1,2-2l139.22,0a5.52,5.52,0,0,0,3.38-1.39l53.7-53.48a4.83,4.83,0,0,1,2.8-1.39c.76,0,1.41-.88,1.41-2v-6.62"/><path class="cls-2" d="M443.41,336.4l73.16,72.65a5.45,5.45,0,0,1,1.4,3.35v45.25a5.43,5.43,0,0,0,1.4,3.35l12,11.93a5.48,5.48,0,0,0,3.37,1.4h9.86a5.53,5.53,0,0,0,3.38-1.4l6.29-6.25a5.53,5.53,0,0,1,3.37-1.39h85.81a5.49,5.49,0,0,0,3.37-1.39l63.1-62.66a5.51,5.51,0,0,1,3.38-1.4H874.88a2,2,0,0,1,2,2V580.46a5.47,5.47,0,0,1-1.4,3.35L864,595.15a5.58,5.58,0,0,1-3.38,1.39H654.52a2,2,0,0,1-2-2h0V521.51a2,2,0,0,0-2-2H562.31a2,2,0,0,1-2-1.95V485.08a2,2,0,0,0-2-2,6.18,6.18,0,0,1-4.28-1.4l-7.44-7.38"/><path class="cls-2" d="M775.91.23V211.59a5.43,5.43,0,0,0,1.4,3.35L824,261.34a5.48,5.48,0,0,1,1.4,3.36v35.79l-2.49-.14a4.76,4.76,0,0,0-2.74,1.4l-18.32,18.19a5.43,5.43,0,0,0-1.4,3.35v117a5.57,5.57,0,0,0,1.38,3.35l46.53,46.58a5.43,5.43,0,0,1,1.38,3.35l0,30.34a5.43,5.43,0,0,1-1.4,3.35l-4.91,4.88a5.48,5.48,0,0,1-3.37,1.4H725a2,2,0,0,0-2,2v36a2,2,0,0,1-2,2H628.36a5.53,5.53,0,0,0-3.38,1.4L605.4,594.25a5.58,5.58,0,0,1-3.38,1.39H538.41"/><path class="cls-2" d="M407,823.58v84.33a2,2,0,0,1-2,2H347.52a2,2,0,0,0-2,2v10.36a2,2,0,0,1-2,2H236"/><path class="cls-2" d="M136.44,440.9l113.4,112.62a5.55,5.55,0,0,0,3.38,1.4h36.12a5.54,5.54,0,0,1,3.37,1.38l205.45,204a5.55,5.55,0,0,0,3.37,1.39l62.74,0H593.8a5.48,5.48,0,0,1,3.37,1.4l16.36,16.23a5.5,5.5,0,0,0,3.37,1.4H751.24"/><path class="cls-2" d="M401.31,669l24.44-24.27a5.48,5.48,0,0,1,3.37-1.4H550.64a5.5,5.5,0,0,1,3.37,1.4l34.32,34.08a5.53,5.53,0,0,0,3.38,1.4h54.36"/><path class="cls-2" d="M758.9,357.32,737.54,336.1a5.43,5.43,0,0,1-1.4-3.35V0"/><path class="cls-2" d="M879.89,270.6v20.11a2,2,0,0,1-2,2H783.42a5.5,5.5,0,0,0-3.37,1.4L729.77,344a5.43,5.43,0,0,0-1.4,3.35v56.41a5.43,5.43,0,0,0,1.4,3.35l10.63,10.56a5.43,5.43,0,0,1,1.4,3.35V542.47a2,2,0,0,1-2,2H555.09a5.49,5.49,0,0,1-3.37-1.39L530.52,522l-15.77,14.8a5.52,5.52,0,0,1-3.37,1.38H407.64a5.65,5.65,0,0,0-3.37,1.37l-62.1,61.3a5.47,5.47,0,0,1-3.37,1.37H269a5.48,5.48,0,0,0-3.37,1.4l-68.22,67.73a5.48,5.48,0,0,1-3.37,1.4h-34.4a5.57,5.57,0,0,0-3.38,1.38L94.57,735.33a5.43,5.43,0,0,0-1.4,3.35v98a2,2,0,0,1-2,2H60.44a5.5,5.5,0,0,0-3.37,1.4L8.78,888"/><path class="cls-2" d="M310,500.61V534.7a5.47,5.47,0,0,1-1.4,3.35l-56.48,55.88a5.48,5.48,0,0,1-3.37,1.4H90.89"/><path class="cls-2" d="M1105.61,495.17l-15-14.95a5.51,5.51,0,0,0-3.38-1.4h-46a5.5,5.5,0,0,0-3.37,1.4l-14.5,14.4c-.77.76-1.4.5-1.4-.57V459.12a5.45,5.45,0,0,0-1.4-3.35L1018,453.3"/><path class="cls-2" d="M952.26,316.83v54.43a5.43,5.43,0,0,0,1.4,3.35L1040,460.39a5.5,5.5,0,0,0,3.37,1.4H1142a5.43,5.43,0,0,0,3.36-1.4l22.6-22.8a5.5,5.5,0,0,1,3.36-1.39h106.38a2,2,0,0,0,2-2l0-95.24a2,2,0,0,1,2-2h39a2,2,0,0,1,2,2v48.1"/><path class="cls-2" d="M138.36,439.63h-5a5.48,5.48,0,0,1-3.38-1.4l-17.72-17.58a5.48,5.48,0,0,0-3.37-1.4H92a5.57,5.57,0,0,1-3.38-1.38L33,362.61a5.51,5.51,0,0,0-3.38-1.4H14.4"/><path class="cls-2" d="M1084.72,204.66l19.2,19.06a5.5,5.5,0,0,0,3.36,1.39H1284.7a2,2,0,0,1,2,2V327.91a3,3,0,0,0,3,3h36.42a2,2,0,0,1,2,2v54.65"/><path class="cls-2" d="M158.66,877.33H400.78a2,2,0,0,0,2-2V751.48a2,2,0,0,0-2-2H370.66a2,2,0,0,1-2-2h0V720.8a2,2,0,0,0-2-2H345.84"/><path class="cls-2" d="M584,574.68h9.55a5.48,5.48,0,0,0,3.37-1.4l48.23-47.83a5.58,5.58,0,0,1,3.38-1.39h24.26a5.55,5.55,0,0,1,3.37,1.39l23.26,23.1a5.55,5.55,0,0,0,3.37,1.39H813.82a2,2,0,0,0,2-2V493.52a5.33,5.33,0,0,0-1.4-3.33l-20.35-20-2.8-2.76-1.17-1.16a5.53,5.53,0,0,0-3.37-1.39H775a2,2,0,0,1-2-2v-73.7a2,2,0,0,1,2-2h77.38"/><path class="cls-2" d="M90.55,480.77V592a5.47,5.47,0,0,0,1.4,3.35L141,644a5.46,5.46,0,0,0,3.37,1.4h21.8a5.49,5.49,0,0,1,3.37,1.39L282.55,759a5.55,5.55,0,0,0,3.38,1.4h170.6a2,2,0,0,1,2,2v60.41"/></g></g></g></svg>