<!-- Generator: Adobe Illustrator 24.0.3, SVG Export Plug-In  -->
<svg version="1.1" xmlns="http://www.w3.org/2000/svg" xmlns:xlink="http://www.w3.org/1999/xlink" x="0px" y="0px" width="38.4px"
	 height="67.2px" viewBox="0 0 38.4 67.2" style="enable-background:new 0 0 38.4 67.2;" xml:space="preserve">
<style type="text/css">
	.st0{fill:url(#SVGID_1_);}
	.st1{fill:url(#SVGID_2_);}
	.st2{fill:url(#SVGID_3_);}
	.st3{fill:url(#SVGID_4_);}
	.st4{fill:url(#SVGID_5_);}
	.st5{fill:url(#SVGID_6_);}
</style>
<defs>
</defs>
<g>
	<g>
		<linearGradient id="SVGID_1_" gradientUnits="userSpaceOnUse" x1="-52.678" y1="48.8215" x2="149.0088" y2="9.2522">
			<stop  offset="0" style="stop-color:#E96031"/>
			<stop  offset="0.5" style="stop-color:#84378C"/>
			<stop  offset="1" style="stop-color:#E2332D"/>
		</linearGradient>
		<path class="st0" d="M38.4,67.2h-2.1V16.8L13.6,3.6v21.9l12.7-6.3v38.4H11.5V29l-9.4,5.2V65h9.4v2.1H0V32.9l11.5-6.3V0l26.9,15.6
			V67.2z M13.6,55.6h10.6V22.7l-10.6,5.2V55.6z"/>
	</g>
	<g>
		<g>
			<linearGradient id="SVGID_2_" gradientUnits="userSpaceOnUse" x1="-51.6465" y1="54.159" x2="150.0845" y2="14.581">
				<stop  offset="0" style="stop-color:#E96031"/>
				<stop  offset="0.5" style="stop-color:#84378C"/>
				<stop  offset="1" style="stop-color:#E2332D"/>
			</linearGradient>
			<polygon class="st1" points="23.2,54.1 23.2,24.8 14.6,29.1 14.6,54.1 			"/>
		</g>
		<linearGradient id="SVGID_3_" gradientUnits="userSpaceOnUse" x1="-47.1284" y1="77.0781" x2="154.5288" y2="37.5145">
			<stop  offset="0" style="stop-color:#E96031"/>
			<stop  offset="0.5" style="stop-color:#84378C"/>
			<stop  offset="1" style="stop-color:#E2332D"/>
		</linearGradient>
		<rect x="14.6" y="59.1" class="st2" width="18.5" height="8.1"/>
	</g>
</g>
</svg>
